<svg width="72" height="16" viewBox="0 0 72 16" fill="none" xmlns="http://www.w3.org/2000/svg">
<g clip-path="url(#clip0_209_4)">
<path d="M18.7759 14.9883H16.7617V4.15576H17.2451L18.0435 5.10059C18.2241 4.92969 18.4219 4.76855 18.6367 4.61719C18.8516 4.46582 19.0737 4.33643 19.3032 4.229C19.5376 4.1167 19.7793 4.02881 20.0283 3.96533C20.2773 3.90186 20.5288 3.87012 20.7827 3.87012C21.3345 3.87012 21.8521 3.97021 22.3354 4.17041C22.8237 4.36572 23.2485 4.64404 23.6099 5.00537C23.9761 5.3667 24.2642 5.80371 24.4741 6.31641C24.6841 6.82422 24.7891 7.38818 24.7891 8.0083C24.7891 8.65283 24.6841 9.23389 24.4741 9.75146C24.2642 10.2642 23.9761 10.7012 23.6099 11.0625C23.2485 11.4189 22.8237 11.6924 22.3354 11.8828C21.8521 12.0732 21.3345 12.1685 20.7827 12.1685C20.6069 12.1685 20.4312 12.1489 20.2554 12.1099C20.0845 12.0708 19.9136 12.0195 19.7427 11.9561C19.5767 11.8877 19.4106 11.812 19.2446 11.729C19.0835 11.646 18.9272 11.5605 18.7759 11.4727V14.9883ZM22.7822 8.0083C22.7822 7.67627 22.7285 7.37842 22.6211 7.11475C22.5186 6.85107 22.377 6.62891 22.1963 6.44824C22.0156 6.2627 21.8032 6.12109 21.5591 6.02344C21.3149 5.92578 21.0562 5.87695 20.7827 5.87695C20.5093 5.87695 20.2505 5.92578 20.0063 6.02344C19.7671 6.12109 19.5571 6.2627 19.3765 6.44824C19.1958 6.62891 19.0518 6.85107 18.9443 7.11475C18.8418 7.37842 18.7905 7.67627 18.7905 8.0083C18.7905 8.32568 18.8418 8.61621 18.9443 8.87988C19.0518 9.14355 19.1958 9.36816 19.3765 9.55371C19.5571 9.73926 19.7671 9.8833 20.0063 9.98584C20.2505 10.0884 20.5093 10.1396 20.7827 10.1396C21.0562 10.1396 21.3149 10.0884 21.5591 9.98584C21.8032 9.8833 22.0156 9.73926 22.1963 9.55371C22.377 9.36816 22.5186 9.14355 22.6211 8.87988C22.7285 8.61621 22.7822 8.32568 22.7822 8.0083ZM31.6665 11.0845C31.5054 11.231 31.332 11.3701 31.1465 11.502C30.9658 11.6289 30.7754 11.7412 30.5752 11.8389C30.375 11.9316 30.1675 12.0049 29.9526 12.0586C29.7427 12.1172 29.5278 12.1465 29.3081 12.1465C28.8247 12.1465 28.3706 12.061 27.9458 11.8901C27.521 11.7192 27.1475 11.4775 26.8252 11.165C26.5078 10.8477 26.2563 10.4644 26.0708 10.0151C25.8901 9.56104 25.7998 9.05322 25.7998 8.4917V4.15576H27.792V8.4917C27.792 8.75537 27.8311 8.99219 27.9092 9.20215C27.9922 9.40723 28.1021 9.58057 28.2388 9.72217C28.3755 9.86377 28.5342 9.97119 28.7148 10.0444C28.9004 10.1177 29.0981 10.1543 29.3081 10.1543C29.5132 10.1543 29.7061 10.1079 29.8867 10.0151C30.0723 9.91748 30.2334 9.79053 30.3701 9.63428C30.5068 9.47803 30.6143 9.30225 30.6924 9.10693C30.7705 8.90674 30.8096 8.70166 30.8096 8.4917V4.15576H32.8091V12H32.3257L31.6665 11.0845ZM40.4629 12H33.9224L37.2256 6.1626H33.9224V4.17041H40.4629L37.1597 10.0078H40.4629V12ZM47.6992 12H41.1587L44.4619 6.1626H41.1587V4.17041H47.6992L44.396 10.0078H47.6992V12ZM50.8267 12H48.8125V1.03564H50.8267V12ZM55.4775 10.0811C55.5557 10.1055 55.6338 10.1226 55.7119 10.1323C55.79 10.1372 55.8682 10.1396 55.9463 10.1396C56.1416 10.1396 56.3296 10.1128 56.5103 10.0591C56.6909 10.0054 56.8594 9.92969 57.0156 9.83203C57.1768 9.72949 57.3184 9.60742 57.4404 9.46582C57.5674 9.31934 57.6699 9.1582 57.748 8.98242L59.2129 10.4546C59.0273 10.7183 58.8125 10.9551 58.5684 11.165C58.3291 11.375 58.0679 11.5532 57.7847 11.6997C57.5063 11.8462 57.2109 11.9561 56.8984 12.0293C56.5908 12.1074 56.2734 12.1465 55.9463 12.1465C55.3945 12.1465 54.8745 12.0439 54.3862 11.8389C53.9028 11.6338 53.478 11.3481 53.1118 10.9819C52.7505 10.6157 52.4648 10.1812 52.2549 9.67822C52.0449 9.17041 51.9399 8.61377 51.9399 8.0083C51.9399 7.38818 52.0449 6.82178 52.2549 6.30908C52.4648 5.79639 52.7505 5.35938 53.1118 4.99805C53.478 4.63672 53.9028 4.35596 54.3862 4.15576C54.8745 3.95557 55.3945 3.85547 55.9463 3.85547C56.2734 3.85547 56.5933 3.89453 56.9058 3.97266C57.2183 4.05078 57.5137 4.16309 57.792 4.30957C58.0752 4.45605 58.3389 4.63672 58.583 4.85156C58.8271 5.06152 59.042 5.29834 59.2275 5.56201L55.4775 10.0811ZM56.5029 5.95752C56.4102 5.92334 56.3174 5.90137 56.2246 5.8916C56.1367 5.88184 56.0439 5.87695 55.9463 5.87695C55.6729 5.87695 55.4141 5.92822 55.1699 6.03076C54.9307 6.12842 54.7207 6.27002 54.54 6.45557C54.3643 6.64111 54.2251 6.86572 54.1226 7.12939C54.02 7.38818 53.9688 7.68115 53.9688 8.0083C53.9688 8.08154 53.9712 8.16455 53.9761 8.25732C53.9858 8.3501 53.998 8.44531 54.0127 8.54297C54.0322 8.63574 54.0542 8.72607 54.0786 8.81396C54.103 8.90186 54.1348 8.97998 54.1738 9.04834L56.5029 5.95752ZM67.7603 12H67.2769L66.5005 10.9233C66.3101 11.0942 66.1074 11.2554 65.8926 11.4067C65.6826 11.5532 65.4604 11.6826 65.2261 11.7949C64.9917 11.9023 64.75 11.9878 64.501 12.0513C64.2568 12.1147 64.0078 12.1465 63.7539 12.1465C63.2021 12.1465 62.6821 12.0439 62.1938 11.8389C61.7104 11.6289 61.2856 11.3408 60.9194 10.9746C60.5581 10.6035 60.2725 10.1665 60.0625 9.66357C59.8525 9.15576 59.7476 8.604 59.7476 8.0083C59.7476 7.41748 59.8525 6.86816 60.0625 6.36035C60.2725 5.85254 60.5581 5.41309 60.9194 5.04199C61.2856 4.6709 61.7104 4.38037 62.1938 4.17041C62.6821 3.96045 63.2021 3.85547 63.7539 3.85547C63.9297 3.85547 64.1104 3.87012 64.2959 3.89941C64.4863 3.92871 64.6694 3.97754 64.8452 4.0459C65.0259 4.10938 65.1943 4.19482 65.3506 4.30225C65.5068 4.40967 65.6387 4.5415 65.7461 4.69775V1.03564H67.7603V12ZM65.7461 8.0083C65.7461 7.73486 65.6924 7.47119 65.585 7.21729C65.4824 6.9585 65.3408 6.73145 65.1602 6.53613C64.9795 6.33594 64.7671 6.17725 64.5229 6.06006C64.2837 5.93799 64.0273 5.87695 63.7539 5.87695C63.4805 5.87695 63.2217 5.92578 62.9775 6.02344C62.7383 6.12109 62.5283 6.2627 62.3477 6.44824C62.1719 6.62891 62.0327 6.85107 61.9302 7.11475C61.8276 7.37842 61.7764 7.67627 61.7764 8.0083C61.7764 8.29639 61.8276 8.56982 61.9302 8.82861C62.0327 9.0874 62.1719 9.31445 62.3477 9.50977C62.5283 9.70508 62.7383 9.85889 62.9775 9.97119C63.2217 10.0835 63.4805 10.1396 63.7539 10.1396C64.0273 10.1396 64.2837 10.0811 64.5229 9.96387C64.7671 9.8418 64.9795 9.68311 65.1602 9.48779C65.3408 9.2876 65.4824 9.06055 65.585 8.80664C65.6924 8.54785 65.7461 8.28174 65.7461 8.0083Z" fill="#37393A"/>
<path fill-rule="evenodd" clip-rule="evenodd" d="M11.4286 2.28571H8C8 1.02335 6.97665 0 5.71429 0C4.45192 0 3.42857 1.02335 3.42857 2.28571H0V5.71436C1.26237 5.71436 2.28571 6.7377 2.28571 8.00007C2.28571 9.26243 1.26237 10.2858 0 10.2858V13.7143H3.42857C3.42857 14.9767 4.45192 16 5.71429 16C6.97665 16 8 14.9767 8 13.7143H11.4286V10.2858C10.1662 10.2858 9.14286 9.26243 9.14286 8.00007C9.14286 6.7377 10.1662 5.71436 11.4286 5.71436V2.28571Z" fill="#6D28D9"/>
</g>
<defs>
<clipPath id="clip0_209_4">
<rect width="72" height="16" fill="white"/>
</clipPath>
</defs>
</svg>
