<svg width="12" height="16" viewBox="0 0 12 16" fill="none" xmlns="http://www.w3.org/2000/svg">
<path fill-rule="evenodd" clip-rule="evenodd" d="M11.4286 2.28571H8C8 1.02335 6.97665 0 5.71429 0C4.45192 0 3.42857 1.02335 3.42857 2.28571H0V5.71436C1.26237 5.71436 2.28571 6.7377 2.28571 8.00007C2.28571 9.26243 1.26237 10.2858 0 10.2858V13.7143H3.42857C3.42857 14.9767 4.45192 16 5.71429 16C6.97665 16 8 14.9767 8 13.7143H11.4286V10.2858C10.1662 10.2858 9.14286 9.26243 9.14286 8.00007C9.14286 6.7377 10.1662 5.71436 11.4286 5.71436V2.28571Z" fill="#6D28D9"/>
</svg>
